# xmcd
#
# Track frame offsets: 
#        150
#        19060
#        35486
#        55924
#        74199
#        85568
#        102012
#        117067
#        131357
#        147362
#
# Disc length: 2128 seconds
#
# Revision: 2
# Processed by: cddbd v1.4PL0 Copyright (c) Steve Scherf et al.
# Submitted via: ExactAudioCopy v0.90b3
#
DISCID=83084e0a
DTITLE=Willie Nelson - Night And Day
DYEAR=1900
DGENRE=Country
TTITLE0=Vous Et Moi
TTITLE1=Nuages
TTITLE2=Night And Day
TTITLE3=All The Things You Are
TTITLE4=Sweet Georgia Brown
TTITLE5=Gypsy
TTITLE6=Honeysuckle Rose
TTITLE7=Over The Waves
TTITLE8=September In The Rain
TTITLE9=Bandera
EXTD=
EXTT0=
EXTT1=
EXTT2=
EXTT3=
EXTT4=
EXTT5=
EXTT6=
EXTT7=
EXTT8=
EXTT9=
PLAYORDER=
